<svg version="1.1" id="Layer_1" xmlns="http://www.w3.org/2000/svg" x="0" y="0" viewBox="0 0 314 298" xml:space="preserve"><linearGradient id="SVGID_1_" gradientUnits="userSpaceOnUse" x1="31.224" y1="188.869" x2="197.385" y2="188.869"><stop offset="0" stop-color="#13aa7f"/><stop offset=".178" stop-color="#10aa91"/><stop offset=".534" stop-color="#08a9c1"/><stop offset=".874" stop-color="#00a9f4"/></linearGradient><path d="M109.5 168.03c-2.98.79-5.54 1.48-8.11 2.15-4.45 1.15-8.94 1.58-13.43.28-.85-.24-1.7-.6-2.43-1.1-2.48-1.71-2.85-3.09-2.05-5.97 1.76-6.35 6.06-10.33 11.75-13.23 7.01-3.57 14.52-4.94 22.34-5.39l-2.85.99c-4.9 1.7-9.97 3.05-14.65 5.24-2.64 1.23-4.77 3.72-6.86 5.89-1.29 1.34-.36 2.83 1.65 2.97 3.52.25 6.92-.3 10.13-1.76 17.97-8.16 35-17.91 50.61-30.06 8.17-6.36 16.7-12.22 26.04-16.79 4.32-2.11 8.75-4 13.23-5.72-18.11 15.56-36.22 31.11-54.33 46.66 1.97 0 4-.16 6.01.03 9.7.9 16.44 8.45 16.52 18.19.06 6.94-2 13.33-5.04 19.39-2.41 4.79-5.38 9.3-8.1 13.94-.12.21-.17.45-.26.68-.16-.12-.33-.23-.49-.35.5-1.48.93-2.98 1.51-4.42a58.98 58.98 0 004.25-21.68c.03-3.88-.93-7.72-3.29-11.01-2.22-3.1-7.32-4.43-11.77-3.06-5.86 1.8-10.99 4.9-15.77 8.68-8.18 6.48-15.48 13.85-22.46 21.6-6.34 7.03-11.96 14.58-17.45 22.28-9.4 13.2-19.39 25.96-30.32 37.94-4.1 4.49-8.59 8.65-13.13 12.7-2.56 2.28-5.6 4.01-8.42 5.98-.15-.14-.3-.29-.44-.43.26-.39.49-.8.79-1.15 8.36-9.95 15.69-20.64 22.91-31.43 9.68-14.45 19.3-28.94 29.29-43.18 6.28-8.95 13.22-17.43 20.85-25.3 1.09-1.15 2.3-2.19 3.77-3.56z" style="animation:piswTyPq_draw_0 1700ms linear 0ms infinite,piswTyPq_fade 1700ms linear 0ms infinite" stroke-dasharray="700 702" stroke-dashoffset="701" fill="none" stroke="url(#SVGID_1_)" stroke-miterlimit="10"/><linearGradient id="SVGID_2_" gradientUnits="userSpaceOnUse" x1="235.595" y1="107.192" x2="265.928" y2="107.192"><stop offset="0" stop-color="#13aa7f"/><stop offset=".178" stop-color="#10aa91"/><stop offset=".534" stop-color="#08a9c1"/><stop offset=".874" stop-color="#00a9f4"/></linearGradient><path d="M246.89 91.92c-.22 3.23-.54 6.05-.55 8.87 0 1.89.24 3.83.74 5.65 1.67 5.97 1.53 11.79-.83 17.54-.43 1.05-.71 2.17-1.22 3.17-.18.35-.85.45-1.29.66-.13-.41-.43-.85-.36-1.21 1.39-7.06.01-13.71-2.6-20.28-1.67-4.21-2.96-8.58-4.41-12.88-.63-1.88-.22-2.27 1.79-2.18 2.36.11 4.78.32 7.09-.07 1.98-.33 3.87-1.33 5.71-2.21 1.06-.5 1.96-1.35 2.92-2.05 1.3-.94 2.35-.63 3.17.65 2.05 3.22 4.16 6.41 6.08 9.71 1.91 3.28 3.12 6.76 1.62 10.58-.22.55-.7 1-1.06 1.5-.43-.44-1.09-.8-1.26-1.32-1.67-4.98-5.02-8.76-8.71-12.29-1.87-1.79-4.05-3.05-6.83-3.84z" style="animation:piswTyPq_draw_1 1700ms linear 0ms infinite,piswTyPq_fade 1700ms linear 0ms infinite" stroke-dasharray="147 149" stroke-dashoffset="148" fill="none" stroke="url(#SVGID_2_)" stroke-miterlimit="10"/><linearGradient id="SVGID_3_" gradientUnits="userSpaceOnUse" x1="103.035" y1="130.038" x2="124.506" y2="130.038"><stop offset="0" stop-color="#13aa7f"/><stop offset=".178" stop-color="#10aa91"/><stop offset=".534" stop-color="#08a9c1"/><stop offset=".874" stop-color="#00a9f4"/></linearGradient><path d="M124.01 129.94c-.01 6.03-4.34 10.59-10.04 10.59-5.55 0-10.42-4.3-10.43-9.22-.01-7.12 3.98-11.75 10.15-11.77 5.7-.02 10.33 4.64 10.32 10.4z" style="animation:piswTyPq_draw_2 1700ms linear 0ms infinite,piswTyPq_fade 1700ms linear 0ms infinite" stroke-dasharray="66 68" stroke-dashoffset="67" fill="none" stroke="url(#SVGID_3_)" stroke-miterlimit="10"/><linearGradient id="SVGID_4_" gradientUnits="userSpaceOnUse" x1="255.366" y1="86.17" x2="289.39" y2="86.17"><stop offset="0" stop-color="#13aa7f"/><stop offset=".178" stop-color="#10aa91"/><stop offset=".534" stop-color="#08a9c1"/><stop offset=".874" stop-color="#00a9f4"/></linearGradient><path d="M261.37 76.33c.71.45 1.27.69 1.69 1.08 3.83 3.61 8.54 5.57 13.34 7.46 4.57 1.8 8.3 4.9 11.48 8.62.52.61.54 1.66.79 2.51-.87-.18-1.87-.13-2.57-.57-5.18-3.24-10.8-5.34-16.78-6.47-2.27-.43-4.65-.27-6.91-.73-1.99-.41-3.92-1.22-5.8-2.02-.9-.38-.95-1.14-.36-2.07 1.3-2.06 2.4-4.24 3.65-6.32.34-.57.94-.96 1.47-1.49z" style="animation:piswTyPq_draw_3 1700ms linear 0ms infinite,piswTyPq_fade 1700ms linear 0ms infinite" stroke-dasharray="81 83" stroke-dashoffset="82" fill="none" stroke="url(#SVGID_4_)" stroke-miterlimit="10"/><linearGradient id="SVGID_5_" gradientUnits="userSpaceOnUse" x1="256.709" y1="50.411" x2="287.77" y2="50.411"><stop offset="0" stop-color="#13aa7f"/><stop offset=".178" stop-color="#10aa91"/><stop offset=".534" stop-color="#08a9c1"/><stop offset=".874" stop-color="#00a9f4"/></linearGradient><path d="M283.87 37.53c.41.04.84.05 1.24.13.6.12 1.18.31 1.77.46-.46.55-.81 1.29-1.4 1.63-1.29.75-2.71 1.25-4.03 1.93-2.99 1.54-5.3 3.9-7.24 6.55-2.79 3.8-5.37 7.76-8.08 11.62-.82 1.17-1.68 2.35-2.72 3.3-1.36 1.24-2.49.75-3.16-.94-.77-1.93-1.67-3.83-2.66-5.66-.58-1.05-.51-1.75.45-2.44 6.48-4.66 12.19-10.41 19.44-14.01 2.07-1.02 4.17-1.97 6.26-2.95.03.13.08.26.13.38z" style="animation:piswTyPq_draw_4 1700ms linear 0ms infinite,piswTyPq_fade 1700ms linear 0ms infinite" stroke-dasharray="83 85" stroke-dashoffset="84" fill="none" stroke="url(#SVGID_5_)" stroke-miterlimit="10"/><linearGradient id="SVGID_6_" gradientUnits="userSpaceOnUse" x1="235.226" y1="30.473" x2="247.709" y2="30.473"><stop offset="0" stop-color="#13aa7f"/><stop offset=".178" stop-color="#10aa91"/><stop offset=".534" stop-color="#08a9c1"/><stop offset=".874" stop-color="#00a9f4"/></linearGradient><path d="M240.29 13.28c-.32 3.23-.92 5.85-.75 8.42.32 4.9 1.85 9.57 3.89 14.03.97 2.11 2.25 4.1 3.04 6.27.57 1.56.62 3.33.74 5.02.02.29-.75.92-1.14.91-2.43-.05-4.86-.28-7.3-.36-.99-.03-1.33-.43-1.41-1.39-.7-8.37-2.13-16.7-1.45-25.13.19-2.31 1.19-4.59 2.03-6.8.18-.46 1.3-.56 2.35-.97z" style="animation:piswTyPq_draw_5 1700ms linear 0ms infinite,piswTyPq_fade 1700ms linear 0ms infinite" stroke-dasharray="82 84" stroke-dashoffset="83" fill="none" stroke="url(#SVGID_6_)" stroke-miterlimit="10"/><linearGradient id="SVGID_7_" gradientUnits="userSpaceOnUse" x1="195.603" y1="87.478" x2="226.403" y2="87.478"><stop offset="0" stop-color="#13aa7f"/><stop offset=".178" stop-color="#10aa91"/><stop offset=".534" stop-color="#08a9c1"/><stop offset=".874" stop-color="#00a9f4"/></linearGradient><path d="M221.36 74.81c.99 2.29 1.68 3.92 2.41 5.54.27.6.61 1.17.95 1.73 1.7 2.8 1.74 2.85-.93 4.85-2.81 2.11-5.74 4.05-8.54 6.17-2.23 1.68-4.19 3.76-6.55 5.21-3.62 2.22-7.75 2.44-12.26 2.22.34-.61.47-.96.71-1.22.19-.2.51-.32.79-.4 6.53-1.7 11.05-5.88 14.41-11.56 1.43-2.41 2.93-4.79 4.54-7.08 1.26-1.77 2.75-3.37 4.47-5.46z" style="animation:piswTyPq_draw_6 1700ms linear 0ms infinite,piswTyPq_fade 1700ms linear 0ms infinite" stroke-dasharray="83 85" stroke-dashoffset="84" fill="none" stroke="url(#SVGID_7_)" stroke-miterlimit="10"/><linearGradient id="SVGID_8_" gradientUnits="userSpaceOnUse" x1="195.373" y1="52.203" x2="227.655" y2="52.203"><stop offset="0" stop-color="#13aa7f"/><stop offset=".178" stop-color="#10aa91"/><stop offset=".534" stop-color="#08a9c1"/><stop offset=".874" stop-color="#00a9f4"/></linearGradient><path d="M196.54 42.84c1.66 1.23 3.22 2.51 4.89 3.62 2.49 1.65 5.27 2.32 8.26 2.63 3.43.36 6.82 1.14 10.19 1.91 2.11.48 4.16 1.28 6.22 1.97.31.11.57.4.88.64-1.57 2.48-3.05 4.92-4.63 7.29-.78 1.17-1.8 1.03-2.71.1-.36-.37-.63-.88-.83-1.37-1-2.39-2.81-3.61-5.35-3.9-5.19-.59-9.82-2.56-13.75-5.99-1.25-1.09-2.27-2.45-3.27-3.79-.71-.95-.84-2.06.1-3.11z" style="animation:piswTyPq_draw_7 1700ms linear 0ms infinite,piswTyPq_fade 1700ms linear 0ms infinite" stroke-dasharray="77 79" stroke-dashoffset="78" fill="none" stroke="url(#SVGID_8_)" stroke-miterlimit="10"/><linearGradient id="SVGID_9_" gradientUnits="userSpaceOnUse" x1="260.49" y1="69.838" x2="286.441" y2="69.838"><stop offset="0" stop-color="#13aa7f"/><stop offset=".178" stop-color="#10aa91"/><stop offset=".534" stop-color="#08a9c1"/><stop offset=".874" stop-color="#00a9f4"/></linearGradient><path d="M285.68 70.01c-1.01-.29-1.61-.45-2.21-.63-5.04-1.54-9.77-.91-14.1 2.15-1.51 1.07-2.89 2.31-4.38 3.41-.61.45-1.29.91-2.01 1.1-1.54.4-2.07-.23-1.99-1.83.14-2.67.21-5.34.23-8.01.01-1.34.48-1.89 1.89-1.96 3.15-.16 6.3-.81 9.43-.71 4.33.14 8.47 1.31 11.91 4.2.36.3.6.74.86 1.14.11.18.14.42.37 1.14z" style="animation:piswTyPq_draw_8 1700ms linear 0ms infinite,piswTyPq_fade 1700ms linear 0ms infinite" stroke-dasharray="65 67" stroke-dashoffset="66" fill="none" stroke="url(#SVGID_9_)" stroke-miterlimit="10"/><linearGradient id="SVGID_10_" gradientUnits="userSpaceOnUse" x1="219.617" y1="98.642" x2="235.32" y2="98.642"><stop offset="0" stop-color="#13aa7f"/><stop offset=".178" stop-color="#10aa91"/><stop offset=".534" stop-color="#08a9c1"/><stop offset=".874" stop-color="#00a9f4"/></linearGradient><path d="M220.22 110.76c.71-1.13 1.37-2.31 2.15-3.39 3.7-5.07 4.57-10.72 3.62-16.8-.17-1.09-.04-2.24.07-3.35.14-1.29 1.01-1.64 2.09-.92 1.98 1.31 4.03 2.52 5.88 3.99.56.44.9 1.69.73 2.43-1.44 6.53-4.37 12.21-9.87 16.32-.67.5-1.26 1.13-1.99 1.51-.71.37-1.56.48-2.34.71-.1-.16-.22-.33-.34-.5z" style="animation:piswTyPq_draw_9 1700ms linear 0ms infinite,piswTyPq_fade 1700ms linear 0ms infinite" stroke-dasharray="63 65" stroke-dashoffset="64" fill="none" stroke="url(#SVGID_10_)" stroke-miterlimit="10"/><linearGradient id="SVGID_11_" gradientUnits="userSpaceOnUse" x1="218.159" y1="40.274" x2="236.937" y2="40.274"><stop offset="0" stop-color="#13aa7f"/><stop offset=".178" stop-color="#10aa91"/><stop offset=".534" stop-color="#08a9c1"/><stop offset=".874" stop-color="#00a9f4"/></linearGradient><path d="M220.03 29.01c.35.52.77 1.01 1.02 1.58.6 1.37 1.19 2.74 1.64 4.16 1.38 4.39 4.37 7.08 8.58 8.72 1.58.61 3.02 1.64 4.41 2.64 1.08.78 1.03 1.68-.26 2.33-2.01 1.03-3.99 2.13-6.05 3.06-.47.21-1.29-.03-1.81-.32-2.82-1.56-4.85-4.02-6.1-6.85-1.9-4.3-3.53-8.78-2.47-13.66.12-.54.31-1.06.47-1.59.19-.03.38-.05.57-.07z" style="animation:piswTyPq_draw_10 1700ms linear 0ms infinite,piswTyPq_fade 1700ms linear 0ms infinite" stroke-dasharray="62 64" stroke-dashoffset="63" fill="none" stroke="url(#SVGID_11_)" stroke-miterlimit="10"/><linearGradient id="SVGID_12_" gradientUnits="userSpaceOnUse" x1="247.865" y1="40.841" x2="263.523" y2="40.841"><stop offset="0" stop-color="#13aa7f"/><stop offset=".178" stop-color="#10aa91"/><stop offset=".534" stop-color="#08a9c1"/><stop offset=".874" stop-color="#00a9f4"/></linearGradient><path d="M262.95 28.99c-.28.43-.5.91-.83 1.28-4.43 4.92-5.77 10.7-4.79 17.14.17 1.12.42 2.28.25 3.37-.14.9-.67 1.95-1.37 2.47-.34.25-1.53-.48-2.23-.92-1.23-.79-2.32-1.8-3.58-2.53-1.53-.89-2.43-2.25-1.85-3.82 2.45-6.74 5.24-13.28 12.06-16.92.62-.33 1.39-.4 2.08-.59.08.17.17.35.26.52z" style="animation:piswTyPq_draw_11 1700ms linear 0ms infinite,piswTyPq_fade 1700ms linear 0ms infinite" stroke-dasharray="62 64" stroke-dashoffset="63" fill="none" stroke="url(#SVGID_12_)" stroke-miterlimit="10"/><linearGradient id="SVGID_13_" gradientUnits="userSpaceOnUse" x1="198.062" y1="69.791" x2="221.911" y2="69.791"><stop offset="0" stop-color="#13aa7f"/><stop offset=".178" stop-color="#10aa91"/><stop offset=".534" stop-color="#08a9c1"/><stop offset=".874" stop-color="#00a9f4"/></linearGradient><path d="M221.4 64.94c0 2.96.03 5.93-.03 8.9-.01.38-.44 1.05-.74 1.08-5.83.76-11.66 1.07-17.35-.82-1.28-.42-2.48-1.17-3.59-1.96-.47-.33-.61-1.13-.9-1.72.6-.15 1.21-.44 1.8-.41 2.02.09 4.05.55 6.04.4 3.92-.29 7.11-2.29 9.89-4.97 1.74-1.68 2.57-1.78 4.88-.5z" style="animation:piswTyPq_draw_12 1700ms linear 0ms infinite,piswTyPq_fade 1700ms linear 0ms infinite" stroke-dasharray="59 61" stroke-dashoffset="60" fill="none" stroke="url(#SVGID_13_)" stroke-miterlimit="10"/><style data-made-with="vivus-instant">@keyframes piswTyPq_fade{0%,88.23529411764706%{stroke-opacity:1}}@keyframes piswTyPq_draw_0{11.76470588235294%{stroke-dashoffset:701}43.13725490196078%{stroke-dashoffset:0}}@keyframes piswTyPq_draw_1{13.071895424836603%{stroke-dashoffset:148}44.444444444444436%{stroke-dashoffset:0}}@keyframes piswTyPq_draw_2{14.379084967320264%{stroke-dashoffset:67}45.751633986928105%{stroke-dashoffset:0}}@keyframes piswTyPq_draw_3{15.686274509803921%{stroke-dashoffset:82}47.05882352941176%{stroke-dashoffset:0}}@keyframes piswTyPq_draw_4{16.99346405228758%{stroke-dashoffset:84}48.366013071895416%{stroke-dashoffset:0}}@keyframes piswTyPq_draw_5{18.300653594771244%{stroke-dashoffset:83}49.67320261437908%{stroke-dashoffset:0}}@keyframes piswTyPq_draw_6{19.607843137254903%{stroke-dashoffset:84}50.98039215686274%{stroke-dashoffset:0}}@keyframes piswTyPq_draw_7{20.915032679738562%{stroke-dashoffset:78}52.2875816993464%{stroke-dashoffset:0}}@keyframes piswTyPq_draw_8{22.222222222222225%{stroke-dashoffset:66}53.59477124183007%{stroke-dashoffset:0}}@keyframes piswTyPq_draw_9{23.52941176470588%{stroke-dashoffset:64}54.90196078431372%{stroke-dashoffset:0}}@keyframes piswTyPq_draw_10{24.836601307189547%{stroke-dashoffset:63}56.209150326797385%{stroke-dashoffset:0}}@keyframes piswTyPq_draw_11{26.143790849673206%{stroke-dashoffset:63}57.51633986928104%{stroke-dashoffset:0}}@keyframes piswTyPq_draw_12{27.450980392156865%{stroke-dashoffset:60}58.82352941176471%{stroke-dashoffset:0}}</style></svg>